<svg xmlns="http://www.w3.org/2000/svg" width="30" height="30"><path d="M30 15c0 8.288-6.712 15-15 15-8.287 0-15-6.712-15-15C0 6.713 6.713 0 15 0c8.288 0 15 6.713 15 15zm-17.745 7.913c6.652 0 10.29-5.513 10.29-10.29 0-.158 0-.316-.008-.465a7.41 7.41 0 001.808-1.875 7.34 7.34 0 01-2.078.57 3.614 3.614 0 001.59-2.003 7.324 7.324 0 01-2.294.877 3.6 3.6 0 00-2.64-1.14 3.617 3.617 0 00-3.615 3.616c0 .285.03.562.097.825a10.26 10.26 0 01-7.455-3.78 3.628 3.628 0 00-.487 1.815 3.6 3.6 0 001.612 3.007 3.553 3.553 0 01-1.635-.45v.045a3.62 3.62 0 002.902 3.547 3.605 3.605 0 01-1.635.06 3.611 3.611 0 003.375 2.513 7.27 7.27 0 01-5.355 1.492 10.076 10.076 0 005.528 1.636z"/></svg>