<svg xmlns="http://www.w3.org/2000/svg" width="29" height="29"><path d="M14.5 9.666a4.834 4.834 0 110 9.669 4.834 4.834 0 010-9.669zm0 12.28a7.446 7.446 0 100-14.892 7.446 7.446 0 100 14.892zM22.24 8.5a1.74 1.74 0 10.002-3.48 1.74 1.74 0 00-.001 3.48zM5.95 25.804a4.507 4.507 0 01-1.668-1.085 4.474 4.474 0 01-1.085-1.666c-.2-.51-.435-1.28-.499-2.693-.07-1.529-.084-1.988-.084-5.86 0-3.872.015-4.33.084-5.86.065-1.413.302-2.18.499-2.692A4.506 4.506 0 014.282 4.28c.507-.508.99-.822 1.668-1.085.51-.199 1.279-.434 2.692-.499 1.529-.07 1.988-.084 5.859-.084 3.87 0 4.33.015 5.86.084 1.413.065 2.18.302 2.692.5a4.49 4.49 0 011.668 1.084c.508.507.821.99 1.085 1.668.199.51.434 1.279.499 2.692.07 1.53.084 1.988.084 5.86 0 3.872-.014 4.33-.084 5.86-.065 1.414-.301 2.182-.5 2.693a4.493 4.493 0 01-1.084 1.666 4.5 4.5 0 01-1.668 1.085c-.51.199-1.279.434-2.692.499-1.529.07-1.988.084-5.86.084-3.873 0-4.33-.014-5.859-.084-1.413-.065-2.182-.3-2.692-.5zM5.003.76a7.112 7.112 0 00-2.57 1.673A7.085 7.085 0 00.762 5.002c-.358.922-.603 1.976-.673 3.52C.016 10.068 0 10.562 0 14.5c0 3.938.016 4.432.088 5.978.07 1.544.315 2.598.673 3.52.37.953.866 1.763 1.673 2.568a7.13 7.13 0 002.569 1.673c.923.358 1.976.603 3.52.673 1.546.07 2.04.088 5.978.088 3.937 0 4.432-.016 5.978-.088 1.544-.07 2.598-.315 3.52-.673a7.131 7.131 0 002.568-1.673 7.103 7.103 0 001.673-2.568c.358-.922.604-1.976.673-3.52.07-1.547.087-2.04.087-5.978 0-3.938-.016-4.432-.087-5.978-.07-1.544-.315-2.598-.673-3.52a7.13 7.13 0 00-1.673-2.568A7.095 7.095 0 0024 .76c-.923-.358-1.977-.604-3.52-.673C18.934.018 18.44 0 14.502 0c-3.938 0-4.433.016-5.98.088-1.543.07-2.598.315-3.52.673z"/></svg>