<svg xmlns="http://www.w3.org/2000/svg" xmlns:xlink="http://www.w3.org/1999/xlink" width="30" height="30"><defs><path id="a" d="M.002.001h29.965v29.993H.002z"/></defs><g fill="none" fill-rule="evenodd"><mask id="b" fill="#fff"><use xlink:href="#a"/></mask><path fill="#000" d="M29.967 15.088C29.967 6.755 23.259 0 14.983 0 6.708 0 0 6.755 0 15.088c0 7.531 5.48 13.774 12.642 14.906V19.45H8.838v-4.362h3.804v-3.324c0-3.781 2.237-5.87 5.66-5.87 1.64 0 3.354.295 3.354.295v3.713h-1.89c-1.86 0-2.441 1.163-2.441 2.356v2.83h4.155l-.664 4.362h-3.491v10.544c7.163-1.132 12.642-7.375 12.642-14.906" mask="url(#b)"/></g></svg>