<svg xmlns="http://www.w3.org/2000/svg" viewBox="0 0 30 30"><path d="M25.2 20.4c.4-.3.6-.7.8-1.2l1.6-4.6c.5-1.4-.3-3-1.7-3.5-.6-.2-1.2-.2-1.8 0v-.5c0-1.4-.9-2.7-2.3-3.2-.6-.2-1.2-.2-1.8-.1l.7-2.1c.1-.4.2-.8.2-1.3 0-2.2-1.8-4-4-4-1.7 0-3.2 1.1-3.8 2.7l-1.4 4.1-1.2-4C9.8.6 7.6-.6 5.5.1 3.4.8 2.2 3 2.9 5.1l2.2 7h-.2c-.5 0-.9.4-.9.9v6.1C4 25 8.7 29.8 14.6 29.8c5.4.1 10-4 10.6-9.4zm0-7.5c.5.2.7.7.6 1.1l-1.6 4.6c-.2.5-.7.7-1.1.6-.5-.2-.7-.7-.6-1.1l1.6-4.6c.1-.5.6-.8 1.1-.6zm-4.1-3.6c.8.3 1.2 1.1.9 1.9l-2.4 6.9c-.3.8-1.1 1.2-1.9.9-.5-.2-.8-.5-1-1 0 0 .1 0 .1-.1.6-.6 1-1.5 1-2.4 0-.4-.1-.7-.2-1 1.6-4.2 1.3-4.8 2.2-5.2.6-.1 1-.2 1.3 0zM4.7 4.6C4.3 3.5 5 2.3 6.1 2c1.1-.3 2.3.3 2.6 1.4l2.1 6.7c.2.5.7.8 1.2.6.3-.1.5-.3.6-.6l2.3-6.8c.4-1.1 1.6-1.7 2.7-1.3 1.1.4 1.7 1.6 1.3 2.7-.1.3-1.9 5.4-1.8 5.1l-1 2.9c-.5-.3-1-.4-1.6-.4H7L4.7 4.6zM14.6 28c-4.9 0-8.8-4-8.8-8.8V14h8.8c.8 0 1.5.7 1.5 1.5 0 .4-.2.8-.5 1.1-.3.3-.6.4-1 .4h-4.3c-.5 0-.9.4-.9.9s.4.9.9.9h.3c2.8 0 2.4 3.2 2.4 3.3 0 .5.4.9.9.9s.9-.4.9-.9c.1-1.2-.1-2.3-.8-3.3.3 0 .7 0 1-.1.4.9 1.1 1.6 2 1.9 1.3.5 2.9 0 3.7-1.1.4.8 1.3 1.4 2.2 1.4-.6 4.2-4.2 7.1-8.3 7.1z"/></svg>