<svg xmlns="http://www.w3.org/2000/svg" width="38" height="25"><path d="M19.535 24.937L11.86 24.8c-2.486-.047-4.977.047-7.413-.442C.74 23.63.477 20.047.203 17.042A49.546 49.546 0 01.685 4.328C1.09 1.978 2.675.575 5.13.423c8.287-.554 16.628-.489 24.896-.23.873.024 1.753.153 2.614.3 4.25.72 4.353 4.778 4.629 8.196a44.838 44.838 0 01-.366 10.351c-.422 2.839-1.228 5.22-4.63 5.45-4.262.3-8.427.542-12.701.465 0-.018-.024-.018-.037-.018zm-4.57-7.366c3.144-1.709 6.228-3.389 9.353-5.086-3.15-1.709-6.227-3.39-9.353-5.087v10.173z"/></svg>