<svg width="30" height="30" xmlns="http://www.w3.org/2000/svg"><g fill-rule="evenodd"><path d="M15 0c8.284 0 15 6.716 15 15 0 8.284-6.716 15-15 15-8.284 0-15-6.716-15-15C0 6.716 6.716 0 15 0zm0 6.003c-5.501 0-9.977 3.632-9.977 8.096 0 4.003 3.55 7.355 8.344 7.989.325.07.767.214.879.492.1.252.066.647.032.902l-.132.794-.01.06c-.044.252-.2.987.864.538 1.065-.449 5.746-3.384 7.84-5.793h-.001c1.446-1.586 2.138-3.195 2.138-4.982 0-4.464-4.475-8.096-9.977-8.096z"/><path d="M12.973 11.942h-.7a.194.194 0 00-.194.194v4.347c0 .107.087.194.194.194h.7a.194.194 0 00.194-.194v-4.347a.194.194 0 00-.194-.194m4.817 0h-.7a.194.194 0 00-.194.194v2.583l-1.993-2.69a.164.164 0 00-.016-.022l-.012-.012a.109.109 0 00-.014-.012l-.005-.004-.01-.007-.006-.003-.01-.006-.006-.003-.011-.005-.007-.002-.011-.004a.068.068 0 00-.036-.007h-.717a.194.194 0 00-.195.194v4.347c0 .107.088.194.195.194h.7a.194.194 0 00.194-.194v-2.582l1.995 2.694a.197.197 0 00.051.05l.012.007.006.003.009.005c.003 0 .006.002.01.004l.005.002.013.004h.003a.188.188 0 00.05.007h.7a.194.194 0 00.194-.194v-4.347a.194.194 0 00-.194-.194m-6.504 3.647H9.384v-3.453a.194.194 0 00-.194-.194h-.7a.194.194 0 00-.194.194v4.347c0 .052.02.1.054.134l.003.003.003.003a.193.193 0 00.134.054h2.796a.194.194 0 00.194-.194v-.7a.194.194 0 00-.194-.194m10.369-2.559a.194.194 0 00.194-.194v-.7a.194.194 0 00-.194-.194h-2.796c-.053 0-.1.02-.135.055l-.002.002a.193.193 0 00-.057.137v4.347c0 .053.02.1.054.135l.003.003.002.002a.193.193 0 00.134.054h2.797a.194.194 0 00.194-.194v-.7a.194.194 0 00-.194-.194h-1.902v-.735h1.902a.194.194 0 00.194-.194v-.7a.194.194 0 00-.194-.195h-1.902v-.734h1.902z"/></g></svg>